<svg width="39" height="36" viewBox="0 0 39 36" fill="none" xmlns="http://www.w3.org/2000/svg">
<path fill-rule="evenodd" clip-rule="evenodd" d="M0 9.99999C0 4.47714 4.47715 0 10 0H29C34.5228 0 39 4.47715 39 10V18V19.6703L39 19.6969L38.9996 36L27.0119 29.6703H10C4.47715 29.6703 0 25.1932 0 19.6703V9.99999ZM9.75014 15.4286C11.3985 15.4286 12.7348 14.1002 12.7348 12.4615C12.7348 10.8229 11.3985 9.49449 9.75014 9.49449C8.10174 9.49449 6.76545 10.8229 6.76545 12.4615C6.76545 14.1002 8.10174 15.4286 9.75014 15.4286ZM32.2348 12.4615C32.2348 14.1002 30.8985 15.4286 29.2501 15.4286C27.6017 15.4286 26.2654 14.1002 26.2654 12.4615C26.2654 10.8229 27.6017 9.49449 29.2501 9.49449C30.8985 9.49449 32.2348 10.8229 32.2348 12.4615ZM19.3016 15.4286C20.95 15.4286 22.2863 14.1002 22.2863 12.4615C22.2863 10.8229 20.95 9.49449 19.3016 9.49449C17.6532 9.49449 16.3169 10.8229 16.3169 12.4615C16.3169 14.1002 17.6532 15.4286 19.3016 15.4286Z" fill="#EBC781"/>
</svg>
